# xmcd CD database file
#
# Track frame offsets:
#	150
#	20137
#	35545
#
# Disc length: 678 seconds
#
# Revision: 0
# Processed by: cddbd v1.5.1PL2 Copyright (c) Steve Scherf et al.
# Submitted via: CDex 1.51
#
DISCID=2002a403
DTITLE=EINS VIER - EINS
DYEAR=1993
DGENRE=Japanese Pop
TTITLE0=My Only Girl Friend
TTITLE1=Nursery Tale
TTITLE2=Crush The Wall（革命の庭にて）
EXTD=YEAR: 1993
EXTT0=
EXTT1=
EXTT2=
PLAYORDER=
